<?xml version="1.0" encoding="UTF-8"?>
<svg xmlns="http://www.w3.org/2000/svg" viewBox="0 0 512 512" role="img" aria-label="SAMPLE mark: Linis Lane">
  <title>Linis Lane mark — SAMPLE</title>
  <rect width="512" height="512" rx="96" fill="#1F7A6C"/>
  <path d="M256 90 C180 180 155 245 155 295 c0 62 45 107 101 107 s101 -45 101 -107 c0 -50 -25 -115 -101 -205 z" fill="#E8FFF8"/>
  <circle cx="256" cy="275" r="32" fill="#1F7A6C" opacity="0.35"/>
  <path d="M390 130 l10 24 24 10 -24 10 -10 24 -10 -24 -24 -10 24 -10 z" fill="#7ED9C7"/>
  <path d="M120 145 l7 16 16 7 -16 7 -7 16 -7 -16 -16 -7 16 -7 z" fill="#7ED9C7"/>
  <text x="256" y="470" text-anchor="middle" font-family="Helvetica, Arial, sans-serif" font-size="28" font-weight="700" fill="#7ED9C7" letter-spacing="4">SAMPLE</text>
</svg>
